# xmcd
#
# Track frame offsets: 
#        150
#        12510
#        25272
#        63157
#        75003
#        94278
#        112820
#        130063
#        144949
#        159833
#        189690
#        206093
#
# Disc length: 3522 seconds
#
# Revision: 0
# Processed by: cddbd v1.5.2PL0 Copyright (c) Steve Scherf et al.
# Submitted via: ExactAudioCopy v0.99pb4
#
DISCID=8e0dc00c
DTITLE=Tim Wheeler And The Soulshufflers - Extravaganza
DYEAR=1998
DGENRE=Blues
TTITLE0=Extravaganza 
TTITLE1=Shut Up Mama 
TTITLE2=My Blues 
TTITLE3=Hell Yeah Mama 
TTITLE4=Just One More Day
TTITLE5=Beaumont Blues
TTITLE6=Missin' You Agains
TTITLE7=Luckiest Man
TTITLE8=Skinny, White And Tall
TTITLE9=Mom And Dad Blues
TTITLE10=Stratisfaction Guaranteed
TTITLE11=Them Changes
EXTD=
EXTT0=
EXTT1=
EXTT2=
EXTT3=
EXTT4=
EXTT5=
EXTT6=
EXTT7=
EXTT8=
EXTT9=
EXTT10=
EXTT11=
PLAYORDER=
